<?xml version="1.0" standalone="no"?><!DOCTYPE svg PUBLIC "-//W3C//DTD SVG 1.1//EN" "http://www.w3.org/Graphics/SVG/1.1/DTD/svg11.dtd"><svg t="1711610532659" class="icon" viewBox="0 0 1024 1024" version="1.1" xmlns="http://www.w3.org/2000/svg" p-id="4613" xmlns:xlink="http://www.w3.org/1999/xlink" width="32" height="32"><path d="M294.114499 222.514913a44.287283 44.287283 0 0 1 44.287283 44.287283v184.537994a44.333176 44.333176 0 0 1-88.62046 0V266.802196a44.37907 44.37907 0 0 1 44.333177-44.287283z m436.631305-4.313994a44.287283 44.287283 0 0 1 44.287283 44.287283v182.702252a44.333176 44.333176 0 1 1-88.620459 0V262.488202a44.37907 44.37907 0 0 1 44.333176-44.287283z" fill="#2374FF" p-id="4614"></path><path d="M512.384258 88.551619a174.02837 174.02837 0 0 1 174.074263 174.074263h88.482779a262.557042 262.557042 0 1 0-525.114084 0h88.482779a174.120157 174.120157 0 0 1 174.074263-174.074263z m395.464784 877.11767V473.093737a73.429692 73.429692 0 0 0-70.125355-65.903149H189.385401a73.429692 73.429692 0 0 0-73.429692 73.429692V960.620997a73.79684 73.79684 0 0 0 62.552919 63.195429H850.252628a73.79684 73.79684 0 0 0 57.596414-58.101244z" fill="#2374FF" p-id="4615"></path></svg>