 <svg
                    t="1655792782907"
                    class="icon"
                    viewBox="0 0 1024 1024"
                    version="1.1"
                    xmlns="http://www.w3.org/2000/svg"
                    p-id="3463"
                    width="128"
                    height="128"
                  >
                    <path
                      d="M512 789.333333a42.666667 42.666667 0 1 1 0 85.333334 42.666667 42.666667 0 0 1 0-85.333334z m173.226667-145.834666l7.808 7.509333a42.666667 42.666667 0 0 1 0 60.330667l-3.157334 3.157333a38.272 38.272 0 0 1-55.04-0.938667 170.666667 170.666667 0 0 0-245.674666 0 38.272 38.272 0 0 1-54.101334 1.834667l-0.469333-0.426667-3.626667-3.626666a42.666667 42.666667 0 0 1 0-60.373334 256 256 0 0 1 354.261334-7.466666z m158.634666-143.36a42.666667 42.666667 0 0 1 0 60.373333l-1.493333 1.493333a40.533333 40.533333 0 0 1-58.837333-1.536 384 384 0 0 0-543.061334 0l-1.237333 1.237334a40.533333 40.533333 0 0 1-57.344 0.512l-0.256-0.256-1.493333-1.536a42.666667 42.666667 0 0 1-3.541334-56.277334l3.541334-4.010666c183.296-183.296 480.426667-183.296 663.722666 0z m139.648-161.792l11.221334 10.922666a42.666667 42.666667 0 0 1 3.541333 56.32l-3.541333 4.053334-1.024 0.981333a41.301333 41.301333 0 0 1-58.453334-0.128l-0.853333-0.853333c-233.301333-233.301333-611.498667-233.301333-844.8 0l-0.853333 0.853333a41.301333 41.301333 0 0 1-58.453334 0.128L29.312 409.6a42.666667 42.666667 0 0 1-3.584-56.32l3.541333-4.053333C292.181333 86.4 716.16 82.773333 983.509333 338.346667z"
                      fill="#00ab5c"
                      p-id="3464"
                    ></path>
                  </svg>
