<?xml version="1.0" encoding="UTF-8" standalone="no"?>
<svg
      xmlns:dc="http://purl.org/dc/elements/1.1/"
   xmlns:cc="http://creativecommons.org/ns#"
   xmlns:rdf="http://www.w3.org/1999/02/22-rdf-syntax-ns#"
   xmlns:svg="http://www.w3.org/2000/svg"
   xmlns="http://www.w3.org/2000/svg"
   xmlns:xlink="http://www.w3.org/1999/xlink"
   xmlns:sodipodi="http://sodipodi.sourceforge.net/DTD/sodipodi-0.dtd"
   xmlns:inkscape="http://www.inkscape.org/namespaces/inkscape"
   version="1.1"
   id="svg1527"
   xml:space="preserve"
   width="325"
   height="287.5"
   viewBox="0 0 325 287.5"
    sodipodi:docname="LNJOYING"
    inkscape:version="1.0.2">
    
     <g
     id="g1535"
     inkscape:groupmode="layer"
     inkscape:label="秒如设计稿 20210106_20210210"
     transform="matrix(2.4,0,0,-2.4,-255,1400)">
     
        
               <g
       id="g1569">
       <g
         id="g1571"
         clip-path="url(#clipPath1575)"
         style="stroke-width:0.99975002;stroke-miterlimit:4;stroke-dasharray:none">
         
          
          
          
            <!-- 竖版logo -->

             <g
           id="g1897"
           transform="translate(200.4673,547.0426)"
           style="stroke-width:0.99975002;stroke-miterlimit:4;stroke-dasharray:none">
           <path
             d="m 0,0 c -1.267,0.075 -2.538,0.267 -3.793,0.549 -1.254,0.287 -2.493,0.67 -3.704,1.142 -0.459,0.18 -0.914,0.375 -1.364,0.58 0.45,0.204 0.905,0.399 1.364,0.579 1.211,0.472 2.45,0.855 3.704,1.143 C -2.538,4.274 -1.267,4.466 0,4.541 0.633,4.579 1.265,4.587 1.888,4.566 1.913,4.565 1.937,4.563 1.96,4.562 1.87,5.619 1.723,6.661 1.512,7.679 0.911,7.652 0.313,7.607 -0.278,7.535 -1.714,7.36 -3.121,7.056 -4.492,6.657 -5.862,6.251 -7.195,5.746 -8.479,5.15 -9.122,4.852 -9.754,4.534 -10.371,4.192 L -11.266,3.694 C -11.55,3.532 -11.841,3.381 -12.132,3.229 -12.639,2.967 -13.156,2.724 -13.677,2.487 -13.804,2.429 -13.931,2.37 -14.059,2.313 -15.116,1.847 -16.201,1.433 -17.302,1.061 -17.48,1 -17.657,0.94 -17.836,0.882 c -0.559,-0.18 -1.12,-0.353 -1.685,-0.511 -1.276,-0.353 -2.57,-0.653 -3.875,-0.893 -0.007,-0.002 -0.014,-0.003 -0.021,-0.005 -0.362,-0.066 -0.727,-0.127 -1.093,-0.185 -0.689,-0.109 -1.38,-0.2 -2.063,-0.268 -0.123,0.067 -0.262,0.109 -0.412,0.109 -0.477,0 -0.865,-0.387 -0.865,-0.864 0,-0.478 0.388,-0.865 0.865,-0.865 0.24,0 0.457,0.098 0.613,0.256 1.077,0.049 2.13,0.147 3.193,0.278 0.413,0.052 0.825,0.121 1.237,0.184 0.737,-0.367 1.467,-0.749 2.181,-1.158 1.225,-0.703 2.414,-1.465 3.561,-2.284 1.149,-0.817 2.257,-1.688 3.317,-2.611 0.519,-0.451 1.078,-0.957 1.644,-1.43 0.562,-0.479 1.142,-0.94 1.728,-1.393 1.175,-0.905 2.398,-1.753 3.669,-2.538 0.647,-0.399 1.306,-0.78 1.98,-1.142 0.621,0.765 1.197,1.567 1.732,2.399 -0.783,0.353 -1.557,0.734 -2.317,1.146 -1.222,0.665 -2.415,1.396 -3.573,2.189 -0.577,0.398 -1.15,0.804 -1.71,1.23 -0.566,0.422 -1.101,0.855 -1.697,1.318 -1.169,0.906 -2.381,1.753 -3.63,2.539 -1.247,0.788 -2.532,1.513 -3.849,2.173 -0.055,0.028 -0.113,0.053 -0.168,0.081 0.708,0.155 1.414,0.329 2.116,0.518 1.392,-0.73 2.742,-1.53 4.016,-2.426 0.268,-0.19 0.536,-0.379 0.796,-0.579 l 0.819,-0.614 c 0.565,-0.422 1.148,-0.822 1.744,-1.204 1.193,-0.765 2.445,-1.446 3.747,-2.033 1.305,-0.582 2.657,-1.073 4.057,-1.441 0.375,-0.099 0.754,-0.187 1.136,-0.268 0.467,0.95 0.875,1.931 1.227,2.94 -0.56,0.062 -1.122,0.146 -1.683,0.257 -1.245,0.245 -2.478,0.608 -3.683,1.057 -1.205,0.455 -2.38,1.002 -3.515,1.634 -0.567,0.316 -1.126,0.65 -1.672,1.007 l -0.845,0.558 c -0.291,0.198 -0.588,0.383 -0.886,0.569 -0.809,0.503 -1.637,0.971 -2.478,1.406 0.873,0.302 1.739,0.632 2.592,1 0.107,-0.057 0.215,-0.112 0.32,-0.171 l 0.895,-0.498 c 0.617,-0.342 1.249,-0.66 1.892,-0.958 1.284,-0.596 2.617,-1.101 3.987,-1.507 1.371,-0.399 2.778,-0.703 4.214,-0.878 0.591,-0.072 1.189,-0.117 1.79,-0.144 0.211,1.018 0.358,2.06 0.448,3.117 C 1.937,-0.022 1.913,-0.023 1.888,-0.024 1.265,-0.046 0.633,-0.038 0,0"
             style="fill:#4F80BD;fill-opacity:1;fill-rule:nonzero;stroke:none;stroke-width:0.99975002;stroke-miterlimit:4;stroke-dasharray:none"
             id="path1899" />
           </g>
             <g
           id="g1901"
           transform="translate(176.939,552.713)"
           style="stroke-width:0.99975002;stroke-miterlimit:4;stroke-dasharray:none">
           <path
             d="m 0,0 c -0.004,-0.001 -0.008,-0.003 -0.011,-0.005 -0.094,-0.041 -0.189,-0.079 -0.282,-0.12 -0.555,-0.239 -1.114,-0.468 -1.68,-0.678 -0.393,-0.145 -0.796,-0.28 -1.195,-0.406 -0.091,0.032 -0.187,0.053 -0.289,0.053 -0.477,0 -0.864,-0.387 -0.864,-0.865 0,-0.477 0.387,-0.864 0.864,-0.864 0.114,0 0.222,0.024 0.322,0.063 0.471,-0.114 0.945,-0.236 1.418,-0.371 0.49,0.142 0.991,0.294 1.508,0.464 0.365,0.12 0.733,0.248 1.102,0.38 -0.178,0.05 -0.356,0.101 -0.535,0.149 -0.367,0.097 -0.733,0.189 -1.1,0.278 0.444,0.148 0.885,0.301 1.322,0.465 0.417,0.157 0.826,0.333 1.237,0.504 0.543,-0.123 1.084,-0.255 1.622,-0.397 0.019,0.009 0.038,0.016 0.057,0.024 0.867,0.376 1.705,0.773 2.517,1.189 -0.519,0.132 -1.039,0.257 -1.561,0.371 0.056,0.028 0.114,0.052 0.171,0.08 1.316,0.66 2.602,1.385 3.849,2.174 1.249,0.785 2.461,1.633 3.629,2.539 0.597,0.462 1.131,0.896 1.697,1.318 0.56,0.426 1.134,0.832 1.711,1.23 1.157,0.792 2.35,1.523 3.572,2.188 0.76,0.412 1.534,0.794 2.317,1.147 -0.534,0.832 -1.111,1.633 -1.732,2.399 -0.673,-0.362 -1.333,-0.744 -1.98,-1.142 C 16.416,11.381 15.192,10.533 14.017,9.629 13.431,9.175 12.851,8.715 12.289,8.235 11.724,7.763 11.165,7.256 10.646,6.806 9.585,5.882 8.477,5.011 7.329,4.195 6.182,3.376 4.992,2.613 3.767,1.911 2.546,1.21 1.288,0.57 0,0"
             style="fill:#4F80BD;fill-opacity:1;fill-rule:nonzero;stroke:none;stroke-width:0.99975002;stroke-miterlimit:4;stroke-dasharray:none"
             id="path1903" />
           </g>
             <g
           id="g1905"
           transform="translate(190.8848,557.2521)"
           style="stroke-width:0.99975002;stroke-miterlimit:4;stroke-dasharray:none">
           <path
             d="m 0,0 c -0.596,-0.382 -1.179,-0.783 -1.745,-1.205 l -0.819,-0.614 c -0.26,-0.2 -0.527,-0.389 -0.795,-0.578 -1.494,-1.051 -3.086,-1.975 -4.736,-2.8 -0.169,-0.085 -0.337,-0.174 -0.507,-0.256 -0.558,-0.27 -1.122,-0.53 -1.691,-0.777 -1.218,-0.522 -2.46,-0.995 -3.722,-1.411 -0.006,-0.001 -0.011,-0.004 -0.016,-0.005 -0.002,0 -0.003,-0.001 -0.004,-0.001 -1.025,-0.336 -2.076,-0.634 -3.116,-0.882 -0.08,0.024 -0.163,0.041 -0.252,0.041 -0.477,0 -0.864,-0.387 -0.864,-0.864 0,-0.478 0.387,-0.864 0.864,-0.864 0.122,0 0.237,0.025 0.341,0.07 0.383,-0.122 0.768,-0.251 1.144,-0.39 0.082,-0.03 0.163,-0.064 0.245,-0.095 0.569,0.08 1.157,0.174 1.767,0.285 0.379,0.07 0.76,0.147 1.143,0.228 -0.201,0.079 -0.401,0.16 -0.603,0.236 -0.437,0.164 -0.878,0.318 -1.322,0.465 0.367,0.089 0.733,0.181 1.101,0.278 0.39,0.104 0.776,0.224 1.165,0.339 0.653,-0.244 1.302,-0.499 1.943,-0.771 0.145,0.038 0.29,0.075 0.434,0.115 0.795,0.222 1.568,0.465 2.324,0.723 -0.632,0.264 -1.27,0.514 -1.912,0.749 -0.044,0.016 -0.088,0.03 -0.132,0.046 0.044,0.015 0.088,0.028 0.132,0.044 0.822,0.301 1.635,0.635 2.442,0.984 0.714,-0.252 1.422,-0.521 2.118,-0.813 0.81,0.344 1.592,0.709 2.341,1.096 l 0.025,0.013 c 0.082,0.043 0.165,0.087 0.248,0.13 -0.707,0.293 -1.421,0.559 -2.142,0.807 0.842,0.437 1.674,0.893 2.484,1.396 0.297,0.186 0.595,0.372 0.886,0.569 l 0.844,0.558 c 0.546,0.357 1.105,0.692 1.672,1.008 1.135,0.632 2.311,1.179 3.515,1.634 1.205,0.449 2.438,0.811 3.684,1.057 0.56,0.11 1.123,0.194 1.683,0.256 C 9.815,1.81 9.406,2.792 8.94,3.741 8.558,3.661 8.179,3.572 7.803,3.474 6.404,3.106 5.051,2.614 3.747,2.033 2.444,1.446 1.192,0.764 0,0"
             style="fill:#4F80BD;fill-opacity:1;fill-rule:nonzero;stroke:none;stroke-width:0.99975002;stroke-miterlimit:4;stroke-dasharray:none"
             id="path1907" />
           </g>
             <g
           id="g1909"
           transform="translate(173.4819,554.0997)"
           style="stroke-width:0.99975002;stroke-miterlimit:4;stroke-dasharray:none">
           <path
             d="m 0,0 c -0.477,0 -0.864,-0.387 -0.864,-0.864 0,-0.477 0.387,-0.865 0.864,-0.865 0.194,0 0.371,0.066 0.515,0.174 0.389,-0.041 0.777,-0.076 1.17,-0.131 0.53,0.204 1.066,0.421 1.6,0.658 0.361,0.159 0.723,0.327 1.084,0.501 C 4.182,-0.501 3.994,-0.474 3.807,-0.45 2.709,-0.315 1.622,-0.215 0.508,-0.168 0.366,-0.063 0.191,0 0,0"
             style="fill:#4F80BD;fill-opacity:1;fill-rule:nonzero;stroke:none;stroke-width:0.99975002;stroke-miterlimit:4;stroke-dasharray:none"
             id="path1911" />
           </g>
             <g
           id="g1913"
           transform="translate(156.5068,568.899)"
           style="stroke-width:0.99975002;stroke-miterlimit:4;stroke-dasharray:none">
           <path
             d="m 0,0 c -0.885,0 -1.604,-0.718 -1.604,-1.604 0,-0.885 0.719,-1.603 1.604,-1.603 0.886,0 1.604,0.718 1.604,1.603 C 1.604,-0.718 0.886,0 0,0"
             style="fill:#4F80BD;fill-opacity:1;fill-rule:nonzero;stroke:none;stroke-width:0.99975002;stroke-miterlimit:4;stroke-dasharray:none"
             id="path1915" />
           </g>
             <g
           id="g1917"
           transform="translate(152.7471,563.8116)"
           style="stroke-width:0.99975002;stroke-miterlimit:4;stroke-dasharray:none">
           <path
             d="m 0,0 c -0.959,0 -1.737,-0.778 -1.737,-1.737 0,-0.96 0.778,-1.738 1.737,-1.738 0.959,0 1.737,0.778 1.737,1.738 C 1.737,-0.778 0.959,0 0,0"
             style="fill:#4F80BD;fill-opacity:1;fill-rule:nonzero;stroke:none;stroke-width:0.99975002;stroke-miterlimit:4;stroke-dasharray:none"
             id="path1919" />
           </g>
             <g
           id="g1921"
           transform="translate(150.3335,554.1378)"
           style="stroke-width:0.99975002;stroke-miterlimit:4;stroke-dasharray:none">
           <path
             d="M 0,0 C 1.034,0 1.871,0.837 1.871,1.871 1.871,2.904 1.034,3.742 0,3.742 -1.033,3.742 -1.871,2.904 -1.871,1.871 -1.871,0.837 -1.033,0 0,0"
             style="fill:#4F80BD;fill-opacity:1;fill-rule:nonzero;stroke:none;stroke-width:0.99975002;stroke-miterlimit:4;stroke-dasharray:none"
             id="path1923" />
           </g>
             <g
           id="g1925"
           transform="translate(151.4858,549.3131)"
           style="stroke-width:0.99975002;stroke-miterlimit:4;stroke-dasharray:none">
           <path
             d="m 0,0 c 0,1.107 -0.897,2.004 -2.004,2.004 -1.107,0 -2.005,-0.897 -2.005,-2.004 0,-1.107 0.898,-2.004 2.005,-2.004 C -0.897,-2.004 0,-1.107 0,0"
             style="fill:#4F80BD;fill-opacity:1;fill-rule:nonzero;stroke:none;stroke-width:0.99975002;stroke-miterlimit:4;stroke-dasharray:none"
             id="path1927" />
           </g>
             <g
           id="g1929"
           transform="translate(156.5068,532.9342)"
           style="stroke-width:0.99975002;stroke-miterlimit:4;stroke-dasharray:none">
           <path
             d="m 0,0 c -0.885,0 -1.604,-0.718 -1.604,-1.604 0,-0.885 0.719,-1.603 1.604,-1.603 0.886,0 1.604,0.718 1.604,1.603 C 1.604,-0.718 0.886,0 0,0"
             style="fill:#4F80BD;fill-opacity:1;fill-rule:nonzero;stroke:none;stroke-width:0.99975002;stroke-miterlimit:4;stroke-dasharray:none"
             id="path1931" />
           </g>
             <g
           id="g1933"
           transform="translate(152.7471,538.2892)"
           style="stroke-width:0.99975002;stroke-miterlimit:4;stroke-dasharray:none">
           <path
             d="m 0,0 c -0.959,0 -1.737,-0.778 -1.737,-1.737 0,-0.96 0.778,-1.738 1.737,-1.738 0.959,0 1.737,0.778 1.737,1.738 C 1.737,-0.778 0.959,0 0,0"
             style="fill:#4F80BD;fill-opacity:1;fill-rule:nonzero;stroke:none;stroke-width:0.99975002;stroke-miterlimit:4;stroke-dasharray:none"
             id="path1935" />
           </g>
             <g
           id="g1937"
           transform="translate(152.2046,542.6178)"
           style="stroke-width:0.99975002;stroke-miterlimit:4;stroke-dasharray:none">
           <path
             d="m 0,0 c 0,1.033 -0.837,1.871 -1.871,1.871 -1.033,0 -1.871,-0.838 -1.871,-1.871 0,-1.034 0.838,-1.871 1.871,-1.871 C -0.837,-1.871 0,-1.034 0,0"
             style="fill:#4F80BD;fill-opacity:1;fill-rule:nonzero;stroke:none;stroke-width:0.99975002;stroke-miterlimit:4;stroke-dasharray:none"
             id="path1939" />
           </g>
             <g
           id="g1941"
           transform="translate(192.2935,569.4406)"
           style="stroke-width:0.99975002;stroke-miterlimit:4;stroke-dasharray:none">
           <path
             d="M 0,0 C 0.443,0 0.802,0.359 0.802,0.802 0.802,1.245 0.443,1.604 0,1.604 -0.443,1.604 -0.802,1.245 -0.802,0.802 -0.802,0.359 -0.443,0 0,0"
             style="fill:#4F80BD;fill-opacity:1;fill-rule:nonzero;stroke:none;stroke-width:0.99975002;stroke-miterlimit:4;stroke-dasharray:none"
             id="path1943" />
           </g>
             <g
           id="g1945"
           transform="translate(186.7827,572.6178)"
           style="stroke-width:0.99975002;stroke-miterlimit:4;stroke-dasharray:none">
           <path
             d="M 0,0 C 0.517,0 0.936,0.419 0.936,0.936 0.936,1.452 0.517,1.871 0,1.871 -0.517,1.871 -0.936,1.452 -0.936,0.936 -0.936,0.419 -0.517,0 0,0"
             style="fill:#4F80BD;fill-opacity:1;fill-rule:nonzero;stroke:none;stroke-width:0.99975002;stroke-miterlimit:4;stroke-dasharray:none"
             id="path1947" />
           </g>
             <g
           id="g1949"
           transform="translate(180.5078,574.3883)"
           style="stroke-width:0.99975002;stroke-miterlimit:4;stroke-dasharray:none">
           <path
             d="M 0,0 C 0.59,0 1.069,0.479 1.069,1.069 1.069,1.66 0.59,2.138 0,2.138 -0.59,2.138 -1.069,1.66 -1.069,1.069 -1.069,0.479 -0.59,0 0,0"
             style="fill:#4F80BD;fill-opacity:1;fill-rule:nonzero;stroke:none;stroke-width:0.99975002;stroke-miterlimit:4;stroke-dasharray:none"
             id="path1951" />
           </g>
             <g
           id="g1953"
           transform="translate(173.7148,574.5382)"
           style="stroke-width:0.99975002;stroke-miterlimit:4;stroke-dasharray:none">
           <path
             d="M 0,0 C 0.665,0 1.203,0.539 1.203,1.203 1.203,1.867 0.665,2.406 0,2.406 -0.664,2.406 -1.203,1.867 -1.203,1.203 -1.203,0.539 -0.664,0 0,0"
             style="fill:#4F80BD;fill-opacity:1;fill-rule:nonzero;stroke:none;stroke-width:0.99975002;stroke-miterlimit:4;stroke-dasharray:none"
             id="path1955" />
           </g>
             <g
           id="g1957"
           transform="translate(167.2061,575.6798)"
           style="stroke-width:0.99975002;stroke-miterlimit:4;stroke-dasharray:none">
           <path
             d="m 0,0 c -0.738,0 -1.336,-0.598 -1.336,-1.336 0,-0.738 0.598,-1.336 1.336,-1.336 0.738,0 1.336,0.598 1.336,1.336 C 1.336,-0.598 0.738,0 0,0"
             style="fill:#4F80BD;fill-opacity:1;fill-rule:nonzero;stroke:none;stroke-width:0.99975002;stroke-miterlimit:4;stroke-dasharray:none"
             id="path1959" />
           </g>
             <g
           id="g1961"
           transform="translate(161.3984,572.9269)"
           style="stroke-width:0.99975002;stroke-miterlimit:4;stroke-dasharray:none">
           <path
             d="m 0,0 c -0.812,0 -1.47,-0.658 -1.47,-1.47 0,-0.812 0.658,-1.47 1.47,-1.47 0.812,0 1.47,0.658 1.47,1.47 C 1.47,-0.658 0.812,0 0,0"
             style="fill:#4F80BD;fill-opacity:1;fill-rule:nonzero;stroke:none;stroke-width:0.99975002;stroke-miterlimit:4;stroke-dasharray:none"
             id="path1963" />
           </g>
             <g
           id="g1965"
           transform="translate(192.2935,529.1857)"
           style="stroke-width:0.99975002;stroke-miterlimit:4;stroke-dasharray:none">
           <path
             d="m 0,0 c -0.443,0 -0.802,-0.359 -0.802,-0.802 0,-0.443 0.359,-0.802 0.802,-0.802 0.443,0 0.802,0.359 0.802,0.802 C 0.802,-0.359 0.443,0 0,0"
             style="fill:#4F80BD;fill-opacity:1;fill-rule:nonzero;stroke:none;stroke-width:0.99975002;stroke-miterlimit:4;stroke-dasharray:none"
             id="path1967" />
           </g>
             <g
           id="g1969"
           transform="translate(186.7827,526.0084)"
           style="stroke-width:0.99975002;stroke-miterlimit:4;stroke-dasharray:none">
           <path
             d="m 0,0 c -0.517,0 -0.936,-0.419 -0.936,-0.936 0,-0.516 0.419,-0.935 0.936,-0.935 0.517,0 0.936,0.419 0.936,0.935 C 0.936,-0.419 0.517,0 0,0"
             style="fill:#4F80BD;fill-opacity:1;fill-rule:nonzero;stroke:none;stroke-width:0.99975002;stroke-miterlimit:4;stroke-dasharray:none"
             id="path1971" />
           </g>
             <g
           id="g1973"
           transform="translate(180.5078,524.2379)"
           style="stroke-width:0.99975002;stroke-miterlimit:4;stroke-dasharray:none">
           <path
             d="m 0,0 c -0.59,0 -1.069,-0.479 -1.069,-1.069 0,-0.591 0.479,-1.069 1.069,-1.069 0.59,0 1.069,0.478 1.069,1.069 C 1.069,-0.479 0.59,0 0,0"
             style="fill:#4F80BD;fill-opacity:1;fill-rule:nonzero;stroke:none;stroke-width:0.99975002;stroke-miterlimit:4;stroke-dasharray:none"
             id="path1975" />
           </g>
             <g
           id="g1977"
           transform="translate(173.7148,524.088)"
           style="stroke-width:0.99975002;stroke-miterlimit:4;stroke-dasharray:none">
           <path
             d="m 0,0 c -0.664,0 -1.203,-0.539 -1.203,-1.203 0,-0.664 0.539,-1.203 1.203,-1.203 0.665,0 1.203,0.539 1.203,1.203 C 1.203,-0.539 0.665,0 0,0"
             style="fill:#4F80BD;fill-opacity:1;fill-rule:nonzero;stroke:none;stroke-width:0.99975002;stroke-miterlimit:4;stroke-dasharray:none"
             id="path1979" />
           </g>
             <g
           id="g1981"
           transform="translate(167.2061,525.6188)"
           style="stroke-width:0.99975002;stroke-miterlimit:4;stroke-dasharray:none">
           <path
             d="m 0,0 c -0.738,0 -1.336,-0.598 -1.336,-1.336 0,-0.738 0.598,-1.336 1.336,-1.336 0.738,0 1.336,0.598 1.336,1.336 C 1.336,-0.598 0.738,0 0,0"
             style="fill:#4F80BD;fill-opacity:1;fill-rule:nonzero;stroke:none;stroke-width:0.99975002;stroke-miterlimit:4;stroke-dasharray:none"
             id="path1983" />
           </g>
             <g
           id="g1985"
           transform="translate(161.3984,528.6393)"
           style="stroke-width:0.99975002;stroke-miterlimit:4;stroke-dasharray:none">
           <path
             d="m 0,0 c -0.812,0 -1.47,-0.658 -1.47,-1.47 0,-0.812 0.658,-1.47 1.47,-1.47 0.812,0 1.47,0.658 1.47,1.47 C 1.47,-0.658 0.812,0 0,0"
             style="fill:#4F80BD;fill-opacity:1;fill-rule:nonzero;stroke:none;stroke-width:0.99975002;stroke-miterlimit:4;stroke-dasharray:none"
             id="path1987" />
           </g>
             <g
           id="g1989"
           transform="translate(161.7339,478.9288)"
           style="stroke-width:0.99975002;stroke-miterlimit:4;stroke-dasharray:none">
           <path
             d="m 0,0 h 2.359 c 0.104,-0.064 0.219,-0.11 0.35,-0.11 0.375,0 0.68,0.304 0.68,0.679 0,0.376 -0.305,0.681 -0.68,0.681 -0.131,0 -0.246,-0.047 -0.35,-0.111 H 0 v 1.717 h 2.155 c 0.104,-0.064 0.219,-0.11 0.35,-0.11 0.375,0 0.68,0.304 0.68,0.68 0,0.376 -0.305,0.68 -0.68,0.68 -0.131,0 -0.246,-0.047 -0.35,-0.111 h -5.59 c -0.104,0.064 -0.219,0.111 -0.35,0.111 -0.375,0 -0.679,-0.304 -0.679,-0.68 0,-0.376 0.304,-0.68 0.679,-0.68 0.131,0 0.246,0.046 0.35,0.11 h 2.296 V 1.139 h -2.36 c -0.103,0.064 -0.218,0.111 -0.349,0.111 -0.376,0 -0.68,-0.305 -0.68,-0.681 0,-0.375 0.304,-0.679 0.68,-0.679 0.131,0 0.246,0.046 0.349,0.11 h 2.36 v -7.953 c -0.064,-0.103 -0.111,-0.218 -0.111,-0.349 0,-0.376 0.305,-0.68 0.681,-0.68 0.375,0 0.68,0.304 0.68,0.68 0,0.131 -0.047,0.246 -0.111,0.349 z"
             style="fill:#4F80BD;fill-opacity:1;fill-rule:nonzero;stroke:none;stroke-width:0.99975002;stroke-miterlimit:4;stroke-dasharray:none"
             id="path1991" />
           </g>
             <g
           id="g1993"
           transform="translate(191.1177,482.924)"
           style="stroke-width:0.99975002;stroke-miterlimit:4;stroke-dasharray:none">
           <path
             d="m 0,0 h -6.545 v -12.867 h 2.493 c 0.104,-0.064 0.219,-0.111 0.35,-0.111 0.375,0 0.68,0.305 0.68,0.681 0,0.375 -0.305,0.68 -0.68,0.68 -0.131,0 -0.246,-0.047 -0.35,-0.111 h -1.354 v 10.589 h 4.267 v -10.808 c -0.064,-0.104 -0.111,-0.22 -0.111,-0.35 0,-0.376 0.305,-0.681 0.681,-0.681 0.375,0 0.679,0.305 0.679,0.681 0,0.13 -0.046,0.246 -0.11,0.349 z"
             style="fill:#4F80BD;fill-opacity:1;fill-rule:nonzero;stroke:none;stroke-width:0.99975002;stroke-miterlimit:4;stroke-dasharray:none"
             id="path1995" />
           </g>
             <g
           id="g1997"
           transform="translate(159.4092,477.4796)"
           style="stroke-width:0.99975002;stroke-miterlimit:4;stroke-dasharray:none">
           <path
             d="m 0,0 c 0,0.375 -0.305,0.68 -0.68,0.68 -0.376,0 -0.68,-0.305 -0.68,-0.68 0,-0.131 0.047,-0.246 0.11,-0.35 v -6.153 c -0.063,-0.104 -0.11,-0.219 -0.11,-0.35 0,-0.376 0.304,-0.68 0.68,-0.68 0.375,0 0.68,0.304 0.68,0.68 0,0.131 -0.047,0.246 -0.111,0.35 V -0.35 C -0.047,-0.246 0,-0.131 0,0"
             style="fill:#4F80BD;fill-opacity:1;fill-rule:nonzero;stroke:none;stroke-width:0.99975002;stroke-miterlimit:4;stroke-dasharray:none"
             id="path1999" />
           </g>
             <g
           id="g2001"
           transform="translate(165.9727,475.9308)"
           style="stroke-width:0.99975002;stroke-miterlimit:4;stroke-dasharray:none">
           <path
             d="m 0,0 c 0,-0.375 0.305,-0.68 0.68,-0.68 0.376,0 0.68,0.305 0.68,0.68 0,0.131 -0.047,0.246 -0.11,0.35 v 5.956 c 0.063,0.104 0.11,0.219 0.11,0.35 0,0.376 -0.304,0.68 -0.68,0.68 C 0.305,7.336 0,7.032 0,6.656 0,6.525 0.047,6.41 0.111,6.306 V 0.35 C 0.047,0.246 0,0.131 0,0"
             style="fill:#4F80BD;fill-opacity:1;fill-rule:nonzero;stroke:none;stroke-width:0.99975002;stroke-miterlimit:4;stroke-dasharray:none"
             id="path2003" />
           </g>
             <g
           id="g2005"
           transform="translate(170.7544,475.9308)"
           style="stroke-width:0.99975002;stroke-miterlimit:4;stroke-dasharray:none">
           <path
             d="m 0,0 c 0,-0.375 0.305,-0.68 0.68,-0.68 0.376,0 0.68,0.305 0.68,0.68 0,0.131 -0.047,0.246 -0.11,0.35 v 5.956 c 0.063,0.104 0.11,0.219 0.11,0.35 0,0.376 -0.304,0.68 -0.68,0.68 C 0.305,7.336 0,7.032 0,6.656 0,6.525 0.047,6.41 0.111,6.306 V 0.35 C 0.047,0.246 0,0.131 0,0"
             style="fill:#4F80BD;fill-opacity:1;fill-rule:nonzero;stroke:none;stroke-width:0.99975002;stroke-miterlimit:4;stroke-dasharray:none"
             id="path2007" />
           </g>
             <g
           id="g2009"
           transform="translate(164.5068,473.6466)"
           style="stroke-width:0.99975002;stroke-miterlimit:4;stroke-dasharray:none">
           <path
             d="M 0,0 C -0.018,0.103 -0.061,0.193 -0.118,0.273 L -0.69,3.618 c 0.026,0.094 0.037,0.194 0.02,0.297 C -0.734,4.285 -1.085,4.533 -1.456,4.47 -1.826,4.406 -2.075,4.055 -2.011,3.685 -1.984,3.53 -1.9,3.404 -1.792,3.306 L -1.26,0.201 C -1.329,0.072 -1.367,-0.075 -1.34,-0.229 -1.277,-0.6 -0.926,-0.849 -0.555,-0.785 -0.185,-0.722 0.063,-0.37 0,0"
             style="fill:#4F80BD;fill-opacity:1;fill-rule:nonzero;stroke:none;stroke-width:0.99975002;stroke-miterlimit:4;stroke-dasharray:none"
             id="path2011" />
           </g>
             <g
           id="g2013"
           transform="translate(171.4346,473.0294)"
           style="stroke-width:0.99975002;stroke-miterlimit:4;stroke-dasharray:none">
           <path
             d="m 0,0 c -0.342,0 -0.612,-0.256 -0.661,-0.584 l -1.037,-1.249 h -4.87 c -0.104,0.063 -0.219,0.11 -0.35,0.11 -0.375,0 -0.68,-0.304 -0.68,-0.68 0,-0.375 0.305,-0.68 0.68,-0.68 0.131,0 0.246,0.047 0.35,0.111 h 5.404 l 1.374,1.654 c 0.271,0.09 0.47,0.337 0.47,0.638 C 0.68,-0.305 0.375,0 0,0"
             style="fill:#4F80BD;fill-opacity:1;fill-rule:nonzero;stroke:none;stroke-width:0.99975002;stroke-miterlimit:4;stroke-dasharray:none"
             id="path2015" />
           </g>
             <g
           id="g2017"
           transform="translate(168.3638,474.1881)"
           style="stroke-width:0.99975002;stroke-miterlimit:4;stroke-dasharray:none">
           <path
             d="m 0,0 c 0,-0.375 0.305,-0.68 0.68,-0.68 0.376,0 0.68,0.305 0.68,0.68 0,0.131 -0.047,0.246 -0.11,0.35 V 8.049 C 1.313,8.153 1.36,8.268 1.36,8.398 1.36,8.774 1.056,9.079 0.68,9.079 0.305,9.079 0,8.774 0,8.398 0,8.268 0.047,8.153 0.111,8.049 V 0.35 C 0.047,0.246 0,0.131 0,0"
             style="fill:#4F80BD;fill-opacity:1;fill-rule:nonzero;stroke:none;stroke-width:0.99975002;stroke-miterlimit:4;stroke-dasharray:none"
             id="path2019" />
           </g>
             <g
           id="g2021"
           transform="translate(178.2773,476.3737)"
           style="stroke-width:0.99975002;stroke-miterlimit:4;stroke-dasharray:none">
           <path
             d="M 0,0 V 3.69 H 3.299 V 0 c 0,-1.456 -0.64,-2.773 -1.65,-3.704 C 0.639,-2.773 0,-1.456 0,0 m 4.973,-4.981 c -0.102,0 -0.197,-0.026 -0.284,-0.066 L 4.4,-5.01 C 3.738,-4.924 3.124,-4.704 2.571,-4.39 3.717,-3.259 4.437,-1.708 4.437,0 V 3.602 C 4.475,3.595 4.509,3.58 4.548,3.58 c 0.375,0 0.68,0.304 0.68,0.679 0,0.376 -0.305,0.68 -0.68,0.68 -0.039,0 -0.073,-0.016 -0.111,-0.022 v 0.946 c 0.064,0.104 0.111,0.22 0.111,0.35 0,0.376 -0.304,0.68 -0.68,0.68 -0.375,0 -0.68,-0.304 -0.68,-0.68 0,-0.13 0.047,-0.246 0.111,-0.35 V 4.829 H 0 v 1.034 c 0.064,0.104 0.111,0.22 0.111,0.35 0,0.376 -0.305,0.68 -0.68,0.68 -0.376,0 -0.681,-0.304 -0.681,-0.68 0,-0.13 0.047,-0.246 0.111,-0.35 V 4.907 c -0.052,0.013 -0.103,0.032 -0.16,0.032 -0.375,0 -0.68,-0.304 -0.68,-0.68 0,-0.375 0.305,-0.679 0.68,-0.679 0.057,0 0.108,0.019 0.16,0.032 V 0 c 0,-1.708 0.72,-3.259 1.866,-4.39 C 0.175,-4.704 -0.44,-4.924 -1.102,-5.01 L -1.39,-5.047 c -0.087,0.04 -0.182,0.066 -0.284,0.066 -0.376,0 -0.68,-0.304 -0.68,-0.68 0,-0.376 0.304,-0.68 0.68,-0.68 0.165,0 0.311,0.067 0.429,0.164 l 0.29,0.038 c 0.963,0.126 1.838,0.491 2.604,1.001 0.767,-0.51 1.641,-0.875 2.604,-1.001 l 0.29,-0.037 c 0.119,-0.098 0.265,-0.165 0.43,-0.165 0.376,0 0.68,0.304 0.68,0.68 0,0.376 -0.304,0.68 -0.68,0.68"
             style="fill:#4F80BD;fill-opacity:1;fill-rule:nonzero;stroke:none;stroke-width:0.99975002;stroke-miterlimit:4;stroke-dasharray:none"
             id="path2023" />
           </g>
             <g
           id="g2025"
           transform="translate(165.5352,492.1398)"
           style="stroke-width:0.99975002;stroke-miterlimit:4;stroke-dasharray:none">
           <path
             d="m 0,0 c -3.122,0 -5.662,2.54 -5.662,5.661 0,3.122 2.54,5.661 5.662,5.661 3.122,0 5.661,-2.539 5.661,-5.661 C 5.661,2.54 3.122,0 0,0 m 0,13.448 c -4.294,0 -7.788,-3.493 -7.788,-7.787 0,-4.294 3.494,-7.787 7.788,-7.787 4.294,0 7.787,3.493 7.787,7.787 0,4.294 -3.493,7.787 -7.787,7.787"
             style="fill:#4F80BD;fill-opacity:1;fill-rule:nonzero;stroke:none;stroke-width:0.99975002;stroke-miterlimit:4;stroke-dasharray:none"
             id="path2027" />
           </g>
             <g
           id="g2029"
           transform="translate(141.4644,492.4391)"
           style="stroke-width:0.99975002;stroke-miterlimit:4;stroke-dasharray:none">
           <path
             d="m 0,0 v 7.929 c 0,3.81 -3.344,6.855 -7.251,6.353 -3.23,-0.414 -5.564,-3.32 -5.564,-6.576 V 0 c 0,-0.216 -0.034,-0.437 -0.146,-0.622 -0.129,-0.211 -0.205,-0.457 -0.205,-0.723 0,-0.78 0.633,-1.413 1.414,-1.413 0.78,0 1.413,0.633 1.413,1.413 0,0.266 -0.076,0.512 -0.205,0.723 -0.112,0.185 -0.145,0.406 -0.145,0.622 v 7.738 c 0,2.235 1.629,4.235 3.853,4.451 2.552,0.25 4.71,-1.758 4.71,-4.26 V 0 c 0,-0.216 -0.034,-0.437 -0.145,-0.622 -0.129,-0.211 -0.206,-0.457 -0.206,-0.723 0,-0.78 0.633,-1.413 1.414,-1.413 0.78,0 1.414,0.633 1.414,1.413 0,0.266 -0.077,0.512 -0.205,0.723 C 0.033,-0.437 0,-0.216 0,0"
             style="fill:#4F80BD;fill-opacity:1;fill-rule:nonzero;stroke:none;stroke-width:0.99975002;stroke-miterlimit:4;stroke-dasharray:none"
             id="path2031" />
           </g>
             <g
           id="g2033"
           transform="translate(212.4897,492.4391)"
           style="stroke-width:0.99975002;stroke-miterlimit:4;stroke-dasharray:none">
           <path
             d="m 0,0 v 7.929 c 0,3.81 -3.344,6.855 -7.251,6.353 -3.23,-0.414 -5.564,-3.32 -5.564,-6.576 V 0 c 0,-0.216 -0.034,-0.437 -0.146,-0.622 -0.129,-0.211 -0.205,-0.457 -0.205,-0.723 0,-0.78 0.633,-1.413 1.414,-1.413 0.78,0 1.413,0.633 1.413,1.413 0,0.266 -0.076,0.512 -0.205,0.723 -0.112,0.185 -0.145,0.406 -0.145,0.622 v 7.738 c 0,2.235 1.629,4.235 3.853,4.451 2.552,0.25 4.71,-1.758 4.71,-4.26 V 0 c 0,-0.216 -0.034,-0.437 -0.145,-0.622 -0.129,-0.211 -0.206,-0.457 -0.206,-0.723 0,-0.78 0.633,-1.413 1.414,-1.413 0.781,0 1.414,0.633 1.414,1.413 0,0.266 -0.077,0.512 -0.205,0.723 C 0.033,-0.437 0,-0.216 0,0"
             style="fill:#4F80BD;fill-opacity:1;fill-rule:nonzero;stroke:none;stroke-width:0.99975002;stroke-miterlimit:4;stroke-dasharray:none"
             id="path2035" />
           </g>
             <g
           id="g2037"
           transform="translate(152.2993,506.7731)"
           style="stroke-width:0.99975002;stroke-miterlimit:4;stroke-dasharray:none">
           <path
             d="m 0,0 c -0.781,0 -1.414,-0.633 -1.414,-1.414 0,-0.265 0.077,-0.512 0.206,-0.723 0.111,-0.184 0.145,-0.405 0.145,-0.621 v -8.95 c 0,-1.614 -1.308,-2.921 -2.921,-2.921 h -1.503 c -0.216,0 -0.438,0.033 -0.621,0.146 -0.212,0.128 -0.458,0.204 -0.724,0.204 -0.781,0 -1.414,-0.633 -1.414,-1.413 0,-0.781 0.633,-1.414 1.414,-1.414 0.266,0 0.512,0.076 0.724,0.205 0.183,0.112 0.405,0.146 0.621,0.146 h 1.503 c 2.787,0 5.047,2.259 5.047,5.047 v 8.95 c 0,0.216 0.033,0.437 0.145,0.621 0.129,0.211 0.206,0.458 0.206,0.723 C 1.414,-0.633 0.781,0 0,0"
             style="fill:#4F80BD;fill-opacity:1;fill-rule:nonzero;stroke:none;stroke-width:0.99975002;stroke-miterlimit:4;stroke-dasharray:none"
             id="path2039" />
           </g>
             <g
           id="g2041"
           transform="translate(195.085,504.6364)"
           style="stroke-width:0.99975002;stroke-miterlimit:4;stroke-dasharray:none">
           <path
             d="m 0,0 c 0.129,0.211 0.205,0.458 0.205,0.723 0,0.781 -0.633,1.414 -1.413,1.414 -0.781,0 -1.414,-0.633 -1.414,-1.414 0,-0.265 0.076,-0.512 0.205,-0.723 0.112,-0.184 0.146,-0.406 0.146,-0.621 v -11.576 c 0,-0.216 -0.034,-0.438 -0.146,-0.622 -0.129,-0.211 -0.205,-0.457 -0.205,-0.723 0,-0.781 0.633,-1.414 1.414,-1.414 0.78,0 1.413,0.633 1.413,1.414 0,0.266 -0.076,0.512 -0.205,0.723 -0.112,0.184 -0.146,0.406 -0.146,0.622 v 11.576 c 0,0.215 0.034,0.437 0.146,0.621"
             style="fill:#4F80BD;fill-opacity:1;fill-rule:nonzero;stroke:none;stroke-width:0.99975002;stroke-miterlimit:4;stroke-dasharray:none"
             id="path2043" />
           </g>
             <g
           id="g2045"
           transform="translate(125.3198,492.4943)"
           style="stroke-width:0.99975002;stroke-miterlimit:4;stroke-dasharray:none">
           <path
             d="m 0,0 c -0.266,0 -0.512,-0.076 -0.724,-0.205 -0.184,-0.112 -0.405,-0.146 -0.621,-0.146 h -2.618 c -1.614,0 -2.921,1.308 -2.921,2.921 v 8.951 c 0,0.215 0.033,0.437 0.145,0.621 0.129,0.211 0.205,0.458 0.205,0.723 0,0.781 -0.633,1.414 -1.413,1.414 -0.781,0 -1.414,-0.633 -1.414,-1.414 0,-0.265 0.076,-0.512 0.205,-0.723 0.112,-0.184 0.146,-0.406 0.146,-0.621 V 2.57 c 0,-2.787 2.259,-5.047 5.047,-5.047 h 2.618 c 0.216,0 0.437,-0.033 0.621,-0.145 0.212,-0.129 0.458,-0.205 0.724,-0.205 0.781,0 1.414,0.633 1.414,1.413 C 1.414,-0.633 0.781,0 0,0"
             style="fill:#4F80BD;fill-opacity:1;fill-rule:nonzero;stroke:none;stroke-width:0.99975002;stroke-miterlimit:4;stroke-dasharray:none"
             id="path2047" />
           </g>
             <g
           id="g2049"
           transform="translate(187.2837,506.7076)"
           style="stroke-width:0.99975002;stroke-miterlimit:4;stroke-dasharray:none">
           <path
             d="M 0,0 C -0.78,0 -1.412,-0.631 -1.413,-1.41 H -1.415 C -1.41,-1.625 -1.492,-1.834 -1.6,-2.021 h 0.001 l -3.764,-6.315 -1.21,2.031 v 10e-4 l -2.553,4.283 h 10e-4 c -0.108,0.187 -0.19,0.396 -0.186,0.611 H -9.312 C -9.314,-0.631 -9.946,0 -10.725,0 c -0.781,0 -1.414,-0.633 -1.414,-1.414 0,-0.533 0.299,-0.998 0.752,-1.241 0.163,-0.087 0.276,-0.201 0.369,-0.343 l 0.348,-0.584 4.244,-7.123 v -3.556 c 0,-0.216 -0.033,-0.438 -0.145,-0.621 -0.129,-0.212 -0.205,-0.458 -0.205,-0.724 0,-0.781 0.632,-1.414 1.413,-1.414 0.78,0 1.414,0.633 1.414,1.414 0,0.266 -0.076,0.512 -0.205,0.724 -0.113,0.183 -0.146,0.405 -0.146,0.621 v 3.556 l 4.593,7.707 c 0.093,0.142 0.206,0.256 0.368,0.343 0.454,0.243 0.753,0.708 0.753,1.241 C 1.414,-0.633 0.78,0 0,0"
             style="fill:#4F80BD;fill-opacity:1;fill-rule:nonzero;stroke:none;stroke-width:0.99975002;stroke-miterlimit:4;stroke-dasharray:none"
             id="path2051" />
           </g>

             <g
           id="g2053"
           transform="translate(230.6797,498.2501)"
           style="stroke-width:0.99975002;stroke-miterlimit:4;stroke-dasharray:none">
           <path
             d="m 0,0 h -5.657 c -0.216,0 -0.437,0.034 -0.621,0.146 -0.211,0.128 -0.458,0.205 -0.723,0.205 -0.781,0 -1.414,-0.633 -1.414,-1.414 0,-0.78 0.633,-1.414 1.414,-1.414 0.265,0 0.512,0.077 0.723,0.206 0.184,0.112 0.405,0.145 0.621,0.145 h 4.073 c -0.81,-2.638 -3.46,-4.394 -6.43,-3.882 -2.186,0.376 -3.992,2.093 -4.481,4.258 -0.831,3.683 1.962,6.962 5.508,6.962 1.145,0 2.238,-0.357 3.169,-0.992 0.027,-0.018 0.045,-0.047 0.052,-0.078 0.143,-0.63 0.704,-1.101 1.377,-1.101 0.78,0 1.413,0.633 1.413,1.414 0,0.78 -0.633,1.413 -1.413,1.413 -0.003,0 -0.005,0 -0.007,-0.001 V 5.868 C -2.429,5.864 -2.461,5.875 -2.487,5.894 h -0.002 c -1.824,1.298 -4.139,1.781 -6.447,1.2 -2.929,-0.737 -5.212,-3.204 -5.717,-6.181 -0.88,-5.187 3.413,-9.658 8.552,-9.087 3.723,0.414 6.546,3.577 6.889,7.307 v 0.004 C 0.831,-0.4 0.465,0 0,0"
             style="fill:#4F80BD;fill-opacity:1;fill-rule:nonzero;stroke:none;stroke-width:0.99975002;stroke-miterlimit:4;stroke-dasharray:none"
             id="path2055" />
           </g>
         
         
       
            
   
           
             
           
           </g>
           </g>
           </g>
           </svg>
