<?xml version="1.0" encoding="UTF-8" standalone="no"?>
<svg
    xmlns:dc="http://purl.org/dc/elements/1.1/"
   xmlns:cc="http://creativecommons.org/ns#"
   xmlns:rdf="http://www.w3.org/1999/02/22-rdf-syntax-ns#"
   xmlns:svg="http://www.w3.org/2000/svg"
   xmlns="http://www.w3.org/2000/svg"
   xmlns:xlink="http://www.w3.org/1999/xlink"
   xmlns:sodipodi="http://sodipodi.sourceforge.net/DTD/sodipodi-0.dtd"
   xmlns:inkscape="http://www.inkscape.org/namespaces/inkscape"
   version="1.1"
   id="svg1527"
   xml:space="preserve"
   width="188"
   height="56"
   viewBox="0 0 188 56"
   sodipodi:docname="LNJOYING"
   inkscape:version="1.0.2">
   
         
        
     <g
     id="g1535"
     inkscape:groupmode="layer"
     inkscape:label="秒如设计稿 20210106_20210210"
     transform="matrix(1,0,0,-1,-98,740)">
     
        
               <g
       id="g1569">
       <g
         id="g1571"
         clip-path="url(#clipPath1575)"
         style="stroke-width:0.99975002;stroke-miterlimit:4;stroke-dasharray:none">
         
          
          
             
            <!-- 横板logo -->
            
             <g
           id="g1737"
           transform="translate(151.7246,709.6095)"
           style="stroke-width:0.99975002;stroke-miterlimit:4;stroke-dasharray:none">
           <path
             d="m 0,0 c -1.267,0.074 -2.538,0.266 -3.793,0.548 -1.254,0.288 -2.493,0.671 -3.704,1.143 -0.459,0.18 -0.914,0.375 -1.365,0.58 0.451,0.204 0.906,0.398 1.365,0.578 1.211,0.472 2.45,0.856 3.704,1.143 C -2.538,4.274 -1.267,4.466 0,4.541 0.633,4.578 1.265,4.587 1.888,4.565 1.912,4.564 1.937,4.563 1.96,4.562 1.87,5.619 1.723,6.66 1.512,7.679 0.911,7.652 0.313,7.607 -0.278,7.535 -1.714,7.36 -3.121,7.056 -4.492,6.656 -5.862,6.251 -7.195,5.746 -8.48,5.15 -9.122,4.852 -9.754,4.534 -10.371,4.192 L -11.266,3.694 C -11.55,3.532 -11.841,3.381 -12.132,3.229 -12.639,2.967 -13.156,2.724 -13.677,2.487 -13.805,2.429 -13.931,2.369 -14.059,2.313 -15.117,1.847 -16.201,1.432 -17.302,1.061 -17.48,1 -17.658,0.94 -17.836,0.882 c -0.559,-0.18 -1.12,-0.353 -1.685,-0.512 -1.276,-0.352 -2.57,-0.652 -3.875,-0.893 -0.007,-0.001 -0.014,-0.003 -0.021,-0.004 -0.362,-0.066 -0.728,-0.127 -1.093,-0.185 -0.689,-0.109 -1.38,-0.2 -2.063,-0.268 -0.123,0.067 -0.262,0.108 -0.412,0.108 -0.478,0 -0.865,-0.386 -0.865,-0.864 0,-0.477 0.387,-0.864 0.865,-0.864 0.239,0 0.456,0.098 0.613,0.256 1.077,0.049 2.13,0.147 3.193,0.278 0.413,0.052 0.825,0.12 1.237,0.184 0.737,-0.367 1.467,-0.749 2.181,-1.159 1.225,-0.702 2.414,-1.464 3.561,-2.284 1.149,-0.816 2.257,-1.687 3.317,-2.611 0.519,-0.45 1.078,-0.957 1.644,-1.429 0.562,-0.48 1.141,-0.94 1.728,-1.394 1.174,-0.904 2.398,-1.752 3.669,-2.538 0.647,-0.398 1.306,-0.779 1.979,-1.141 0.622,0.765 1.198,1.567 1.733,2.399 -0.783,0.352 -1.557,0.734 -2.318,1.146 -1.221,0.665 -2.415,1.396 -3.572,2.189 -0.577,0.398 -1.15,0.803 -1.71,1.229 -0.566,0.422 -1.101,0.856 -1.697,1.318 -1.169,0.907 -2.381,1.754 -3.63,2.54 -1.247,0.788 -2.532,1.513 -3.849,2.173 -0.055,0.028 -0.113,0.053 -0.169,0.081 0.709,0.155 1.414,0.329 2.117,0.518 1.392,-0.73 2.742,-1.53 4.016,-2.426 0.268,-0.19 0.536,-0.379 0.796,-0.579 l 0.819,-0.614 c 0.565,-0.422 1.148,-0.822 1.744,-1.205 1.193,-0.764 2.444,-1.446 3.747,-2.032 1.305,-0.582 2.657,-1.073 4.057,-1.441 0.375,-0.099 0.754,-0.187 1.136,-0.268 0.467,0.949 0.875,1.931 1.227,2.94 -0.56,0.062 -1.122,0.146 -1.683,0.257 -1.245,0.245 -2.478,0.607 -3.684,1.057 -1.204,0.454 -2.379,1.002 -3.514,1.634 -0.568,0.315 -1.126,0.65 -1.672,1.007 l -0.845,0.558 c -0.291,0.197 -0.588,0.383 -0.886,0.569 -0.81,0.503 -1.637,0.97 -2.479,1.406 0.874,0.302 1.74,0.632 2.593,1 0.107,-0.058 0.215,-0.112 0.32,-0.172 l 0.895,-0.497 c 0.617,-0.342 1.249,-0.66 1.891,-0.958 1.285,-0.596 2.618,-1.102 3.988,-1.507 1.371,-0.399 2.778,-0.703 4.214,-0.878 0.591,-0.072 1.189,-0.117 1.79,-0.144 C 1.723,-2.12 1.87,-1.079 1.96,-0.021 1.937,-0.022 1.912,-0.024 1.888,-0.025 1.265,-0.046 0.633,-0.038 0,0"
             style="fill:#ffffff;fill-opacity:1;fill-rule:nonzero;stroke:none;stroke-width:0.99975002;stroke-miterlimit:4;stroke-dasharray:none"
             id="path1739" />
           </g>
             <g
           id="g1741"
           transform="translate(128.1958,715.2799)"
           style="stroke-width:0.99975002;stroke-miterlimit:4;stroke-dasharray:none">
           <path
             d="m 0,0 c -0.003,-0.002 -0.007,-0.004 -0.011,-0.005 -0.093,-0.042 -0.188,-0.079 -0.282,-0.12 -0.555,-0.24 -1.114,-0.468 -1.679,-0.678 -0.394,-0.145 -0.796,-0.28 -1.195,-0.406 -0.091,0.032 -0.187,0.053 -0.29,0.053 -0.477,0 -0.864,-0.387 -0.864,-0.865 0,-0.477 0.387,-0.864 0.864,-0.864 0.114,0 0.223,0.023 0.322,0.063 0.472,-0.114 0.945,-0.236 1.418,-0.371 0.49,0.141 0.991,0.294 1.508,0.463 0.366,0.12 0.733,0.249 1.102,0.381 -0.178,0.05 -0.356,0.101 -0.535,0.149 -0.366,0.097 -0.733,0.189 -1.099,0.277 0.443,0.148 0.885,0.301 1.322,0.466 0.417,0.157 0.825,0.333 1.237,0.504 0.543,-0.123 1.083,-0.255 1.621,-0.397 0.019,0.009 0.038,0.016 0.057,0.024 0.867,0.375 1.706,0.773 2.517,1.188 -0.519,0.133 -1.039,0.258 -1.561,0.372 0.057,0.028 0.115,0.052 0.171,0.08 1.317,0.66 2.602,1.385 3.849,2.173 1.249,0.786 2.461,1.633 3.63,2.54 0.596,0.462 1.131,0.896 1.697,1.318 0.559,0.426 1.133,0.831 1.71,1.229 1.157,0.793 2.35,1.524 3.572,2.189 0.761,0.412 1.535,0.794 2.317,1.146 -0.534,0.832 -1.11,1.634 -1.732,2.399 C 18.993,12.947 18.333,12.565 17.687,12.167 16.416,11.381 15.192,10.533 14.018,9.629 13.431,9.175 12.852,8.715 12.29,8.235 11.724,7.763 11.165,7.256 10.646,6.806 9.585,5.882 8.478,5.011 7.329,4.195 6.182,3.375 4.993,2.613 3.768,1.911 2.546,1.21 1.289,0.569 0,0"
             style="fill:#ffffff;fill-opacity:1;fill-rule:nonzero;stroke:none;stroke-width:0.99975002;stroke-miterlimit:4;stroke-dasharray:none"
             id="path1743" />
           </g>
             <g
           id="g1745"
           transform="translate(142.1416,719.819)"
           style="stroke-width:0.99975002;stroke-miterlimit:4;stroke-dasharray:none">
           <path
             d="m 0,0 c -0.596,-0.382 -1.179,-0.783 -1.744,-1.205 l -0.819,-0.614 c -0.26,-0.2 -0.528,-0.389 -0.796,-0.578 -1.494,-1.051 -3.086,-1.976 -4.736,-2.801 -0.169,-0.084 -0.336,-0.173 -0.507,-0.255 -0.558,-0.27 -1.121,-0.53 -1.691,-0.777 -1.218,-0.522 -2.459,-0.996 -3.722,-1.411 -0.006,-0.002 -0.011,-0.004 -0.016,-0.005 -10e-4,-0.001 -0.002,-0.001 -0.003,-0.001 -1.026,-0.337 -2.077,-0.635 -3.117,-0.882 -0.08,0.024 -0.163,0.041 -0.251,0.041 -0.478,0 -0.865,-0.387 -0.865,-0.864 0,-0.478 0.387,-0.865 0.865,-0.865 0.121,0 0.236,0.026 0.341,0.071 0.382,-0.122 0.767,-0.252 1.143,-0.39 0.082,-0.031 0.163,-0.065 0.245,-0.096 0.569,0.08 1.158,0.174 1.768,0.286 0.378,0.07 0.759,0.147 1.142,0.228 -0.2,0.079 -0.401,0.16 -0.602,0.236 -0.437,0.164 -0.879,0.318 -1.322,0.465 0.367,0.089 0.733,0.181 1.1,0.278 0.391,0.104 0.777,0.224 1.165,0.339 0.653,-0.244 1.302,-0.499 1.944,-0.771 0.145,0.038 0.289,0.075 0.434,0.115 0.794,0.222 1.567,0.465 2.324,0.723 -0.633,0.264 -1.271,0.514 -1.913,0.749 -0.044,0.016 -0.088,0.029 -0.132,0.045 0.044,0.016 0.089,0.029 0.132,0.045 0.822,0.301 1.635,0.635 2.442,0.984 0.714,-0.252 1.422,-0.521 2.119,-0.813 0.809,0.344 1.592,0.708 2.34,1.096 l 0.025,0.013 c 0.082,0.043 0.165,0.087 0.248,0.13 -0.706,0.293 -1.421,0.559 -2.141,0.807 0.841,0.437 1.673,0.893 2.483,1.396 0.298,0.186 0.595,0.372 0.886,0.569 l 0.845,0.558 c 0.546,0.357 1.104,0.692 1.672,1.008 1.135,0.631 2.31,1.179 3.514,1.633 1.206,0.45 2.439,0.812 3.684,1.057 0.561,0.111 1.123,0.195 1.683,0.257 C 9.815,1.81 9.407,2.792 8.94,3.741 8.558,3.66 8.179,3.572 7.803,3.473 6.404,3.105 5.052,2.614 3.747,2.032 2.444,1.446 1.193,0.764 0,0"
             style="fill:#ffffff;fill-opacity:1;fill-rule:nonzero;stroke:none;stroke-width:0.99975002;stroke-miterlimit:4;stroke-dasharray:none"
             id="path1747" />
           </g>
             <g
           id="g1749"
           transform="translate(124.7393,716.6666)"
           style="stroke-width:0.99975002;stroke-miterlimit:4;stroke-dasharray:none">
           <path
             d="m 0,0 c -0.478,0 -0.864,-0.387 -0.864,-0.864 0,-0.478 0.386,-0.865 0.864,-0.865 0.193,0 0.37,0.066 0.514,0.173 0.39,-0.04 0.778,-0.075 1.171,-0.13 0.53,0.204 1.066,0.421 1.6,0.657 0.361,0.16 0.722,0.328 1.084,0.502 C 4.181,-0.501 3.994,-0.474 3.806,-0.451 2.709,-0.315 1.622,-0.216 0.508,-0.168 0.365,-0.064 0.191,0 0,0"
             style="fill:#ffffff;fill-opacity:1;fill-rule:nonzero;stroke:none;stroke-width:0.99975002;stroke-miterlimit:4;stroke-dasharray:none"
             id="path1751" />
           </g>
             <g
           id="g1753"
           transform="translate(107.7642,731.4655)"
           style="stroke-width:0.99975002;stroke-miterlimit:4;stroke-dasharray:none">
           <path
             d="m 0,0 c -0.886,0 -1.604,-0.718 -1.604,-1.604 0,-0.885 0.718,-1.603 1.604,-1.603 0.886,0 1.604,0.718 1.604,1.603 C 1.604,-0.718 0.886,0 0,0"
             style="fill:#ffffff;fill-opacity:1;fill-rule:nonzero;stroke:none;stroke-width:0.99975002;stroke-miterlimit:4;stroke-dasharray:none"
             id="path1755" />
           </g>
             <g
           id="g1757"
           transform="translate(104.0044,726.3781)"
           style="stroke-width:0.99975002;stroke-miterlimit:4;stroke-dasharray:none">
           <path
             d="m 0,0 c -0.959,0 -1.737,-0.778 -1.737,-1.737 0,-0.959 0.778,-1.737 1.737,-1.737 0.959,0 1.737,0.778 1.737,1.737 C 1.737,-0.778 0.959,0 0,0"
             style="fill:#ffffff;fill-opacity:1;fill-rule:nonzero;stroke:none;stroke-width:0.99975002;stroke-miterlimit:4;stroke-dasharray:none"
             id="path1759" />
           </g>
             <g
           id="g1761"
           transform="translate(101.5908,716.7042)"
           style="stroke-width:0.99975002;stroke-miterlimit:4;stroke-dasharray:none">
           <path
             d="M 0,0 C 1.033,0 1.871,0.838 1.871,1.871 1.871,2.904 1.033,3.742 0,3.742 -1.033,3.742 -1.871,2.904 -1.871,1.871 -1.871,0.838 -1.033,0 0,0"
             style="fill:#ffffff;fill-opacity:1;fill-rule:nonzero;stroke:none;stroke-width:0.99975002;stroke-miterlimit:4;stroke-dasharray:none"
             id="path1763" />
           </g>
             <g
           id="g1765"
           transform="translate(102.7432,711.8795)"
           style="stroke-width:0.99975002;stroke-miterlimit:4;stroke-dasharray:none">
           <path
             d="m 0,0 c 0,1.107 -0.897,2.005 -2.004,2.005 -1.107,0 -2.005,-0.898 -2.005,-2.005 0,-1.107 0.898,-2.004 2.005,-2.004 C -0.897,-2.004 0,-1.107 0,0"
             style="fill:#ffffff;fill-opacity:1;fill-rule:nonzero;stroke:none;stroke-width:0.99975002;stroke-miterlimit:4;stroke-dasharray:none"
             id="path1767" />
           </g>
             <g
           id="g1769"
           transform="translate(107.7642,695.5011)"
           style="stroke-width:0.99975002;stroke-miterlimit:4;stroke-dasharray:none">
           <path
             d="m 0,0 c -0.886,0 -1.604,-0.718 -1.604,-1.604 0,-0.885 0.718,-1.603 1.604,-1.603 0.886,0 1.604,0.718 1.604,1.603 C 1.604,-0.718 0.886,0 0,0"
             style="fill:#ffffff;fill-opacity:1;fill-rule:nonzero;stroke:none;stroke-width:0.99975002;stroke-miterlimit:4;stroke-dasharray:none"
             id="path1771" />
           </g>
             <g
           id="g1773"
           transform="translate(104.0044,700.8556)"
           style="stroke-width:0.99975002;stroke-miterlimit:4;stroke-dasharray:none">
           <path
             d="m 0,0 c -0.959,0 -1.737,-0.778 -1.737,-1.737 0,-0.959 0.778,-1.737 1.737,-1.737 0.959,0 1.737,0.778 1.737,1.737 C 1.737,-0.778 0.959,0 0,0"
             style="fill:#ffffff;fill-opacity:1;fill-rule:nonzero;stroke:none;stroke-width:0.99975002;stroke-miterlimit:4;stroke-dasharray:none"
             id="path1775" />
           </g>
             <g
           id="g1777"
           transform="translate(103.4619,705.1842)"
           style="stroke-width:0.99975002;stroke-miterlimit:4;stroke-dasharray:none">
           <path
             d="m 0,0 c 0,1.033 -0.838,1.871 -1.871,1.871 -1.033,0 -1.871,-0.838 -1.871,-1.871 0,-1.033 0.838,-1.871 1.871,-1.871 C -0.838,-1.871 0,-1.033 0,0"
             style="fill:#ffffff;fill-opacity:1;fill-rule:nonzero;stroke:none;stroke-width:0.99975002;stroke-miterlimit:4;stroke-dasharray:none"
             id="path1779" />
           </g>
             <g
           id="g1781"
           transform="translate(143.5503,732.0074)"
           style="stroke-width:0.99975002;stroke-miterlimit:4;stroke-dasharray:none">
           <path
             d="M 0,0 C 0.443,0 0.802,0.359 0.802,0.802 0.802,1.245 0.443,1.604 0,1.604 -0.442,1.604 -0.802,1.245 -0.802,0.802 -0.802,0.359 -0.442,0 0,0"
             style="fill:#ffffff;fill-opacity:1;fill-rule:nonzero;stroke:none;stroke-width:0.99975002;stroke-miterlimit:4;stroke-dasharray:none"
             id="path1783" />
           </g>
             <g
           id="g1785"
           transform="translate(138.04,735.1847)"
           style="stroke-width:0.99975002;stroke-miterlimit:4;stroke-dasharray:none">
           <path
             d="M 0,0 C 0.517,0 0.935,0.419 0.935,0.936 0.935,1.452 0.517,1.871 0,1.871 -0.517,1.871 -0.936,1.452 -0.936,0.936 -0.936,0.419 -0.517,0 0,0"
             style="fill:#ffffff;fill-opacity:1;fill-rule:nonzero;stroke:none;stroke-width:0.99975002;stroke-miterlimit:4;stroke-dasharray:none"
             id="path1787" />
           </g>
             <g
           id="g1789"
           transform="translate(131.7651,736.9552)"
           style="stroke-width:0.99975002;stroke-miterlimit:4;stroke-dasharray:none">
           <path
             d="M 0,0 C 0.59,0 1.069,0.479 1.069,1.069 1.069,1.659 0.59,2.138 0,2.138 -0.59,2.138 -1.069,1.659 -1.069,1.069 -1.069,0.479 -0.59,0 0,0"
             style="fill:#ffffff;fill-opacity:1;fill-rule:nonzero;stroke:none;stroke-width:0.99975002;stroke-miterlimit:4;stroke-dasharray:none"
             id="path1791" />
           </g>
             <g
           id="g1793"
           transform="translate(124.9722,737.1051)"
           style="stroke-width:0.99975002;stroke-miterlimit:4;stroke-dasharray:none">
           <path
             d="M 0,0 C 0.664,0 1.203,0.539 1.203,1.203 1.203,1.867 0.664,2.405 0,2.405 -0.664,2.405 -1.203,1.867 -1.203,1.203 -1.203,0.539 -0.664,0 0,0"
             style="fill:#ffffff;fill-opacity:1;fill-rule:nonzero;stroke:none;stroke-width:0.99975002;stroke-miterlimit:4;stroke-dasharray:none"
             id="path1795" />
           </g>
             <g
           id="g1797"
           transform="translate(118.4629,738.2467)"
           style="stroke-width:0.99975002;stroke-miterlimit:4;stroke-dasharray:none">
           <path
             d="m 0,0 c -0.738,0 -1.336,-0.598 -1.336,-1.336 0,-0.738 0.598,-1.337 1.336,-1.337 0.738,0 1.336,0.599 1.336,1.337 C 1.336,-0.598 0.738,0 0,0"
             style="fill:#ffffff;fill-opacity:1;fill-rule:nonzero;stroke:none;stroke-width:0.99975002;stroke-miterlimit:4;stroke-dasharray:none"
             id="path1799" />
           </g>
             <g
           id="g1801"
           transform="translate(112.6553,735.4933)"
           style="stroke-width:0.99975002;stroke-miterlimit:4;stroke-dasharray:none">
           <path
             d="m 0,0 c -0.812,0 -1.47,-0.658 -1.47,-1.47 0,-0.812 0.658,-1.47 1.47,-1.47 0.812,0 1.47,0.658 1.47,1.47 C 1.47,-0.658 0.812,0 0,0"
             style="fill:#ffffff;fill-opacity:1;fill-rule:nonzero;stroke:none;stroke-width:0.99975002;stroke-miterlimit:4;stroke-dasharray:none"
             id="path1803" />
           </g>
             <g
           id="g1805"
           transform="translate(143.5503,691.7521)"
           style="stroke-width:0.99975002;stroke-miterlimit:4;stroke-dasharray:none">
           <path
             d="m 0,0 c -0.442,0 -0.802,-0.359 -0.802,-0.802 0,-0.443 0.36,-0.802 0.802,-0.802 0.443,0 0.802,0.359 0.802,0.802 C 0.802,-0.359 0.443,0 0,0"
             style="fill:#ffffff;fill-opacity:1;fill-rule:nonzero;stroke:none;stroke-width:0.99975002;stroke-miterlimit:4;stroke-dasharray:none"
             id="path1807" />
           </g>
             <g
           id="g1809"
           transform="translate(138.04,688.5748)"
           style="stroke-width:0.99975002;stroke-miterlimit:4;stroke-dasharray:none">
           <path
             d="m 0,0 c -0.517,0 -0.936,-0.418 -0.936,-0.936 0,-0.516 0.419,-0.935 0.936,-0.935 0.517,0 0.935,0.419 0.935,0.935 C 0.935,-0.418 0.517,0 0,0"
             style="fill:#ffffff;fill-opacity:1;fill-rule:nonzero;stroke:none;stroke-width:0.99975002;stroke-miterlimit:4;stroke-dasharray:none"
             id="path1811" />
           </g>
             <g
           id="g1813"
           transform="translate(131.7651,686.8043)"
           style="stroke-width:0.99975002;stroke-miterlimit:4;stroke-dasharray:none">
           <path
             d="m 0,0 c -0.59,0 -1.069,-0.479 -1.069,-1.069 0,-0.59 0.479,-1.069 1.069,-1.069 0.59,0 1.069,0.479 1.069,1.069 C 1.069,-0.479 0.59,0 0,0"
             style="fill:#ffffff;fill-opacity:1;fill-rule:nonzero;stroke:none;stroke-width:0.99975002;stroke-miterlimit:4;stroke-dasharray:none"
             id="path1815" />
           </g>
             <g
           id="g1817"
           transform="translate(124.9722,686.6544)"
           style="stroke-width:0.99975002;stroke-miterlimit:4;stroke-dasharray:none">
           <path
             d="m 0,0 c -0.664,0 -1.203,-0.539 -1.203,-1.203 0,-0.664 0.539,-1.202 1.203,-1.202 0.664,0 1.203,0.538 1.203,1.202 C 1.203,-0.539 0.664,0 0,0"
             style="fill:#ffffff;fill-opacity:1;fill-rule:nonzero;stroke:none;stroke-width:0.99975002;stroke-miterlimit:4;stroke-dasharray:none"
             id="path1819" />
           </g>
             <g
           id="g1821"
           transform="translate(118.4629,688.1857)"
           style="stroke-width:0.99975002;stroke-miterlimit:4;stroke-dasharray:none">
           <path
             d="m 0,0 c -0.738,0 -1.336,-0.599 -1.336,-1.336 0,-0.739 0.598,-1.337 1.336,-1.337 0.738,0 1.336,0.598 1.336,1.337 C 1.336,-0.599 0.738,0 0,0"
             style="fill:#ffffff;fill-opacity:1;fill-rule:nonzero;stroke:none;stroke-width:0.99975002;stroke-miterlimit:4;stroke-dasharray:none"
             id="path1823" />
           </g>
             <g
           id="g1825"
           transform="translate(112.6553,691.2062)"
           style="stroke-width:0.99975002;stroke-miterlimit:4;stroke-dasharray:none">
           <path
             d="m 0,0 c -0.812,0 -1.47,-0.658 -1.47,-1.47 0,-0.812 0.658,-1.47 1.47,-1.47 0.812,0 1.47,0.658 1.47,1.47 C 1.47,-0.658 0.812,0 0,0"
             style="fill:#ffffff;fill-opacity:1;fill-rule:nonzero;stroke:none;stroke-width:0.99975002;stroke-miterlimit:4;stroke-dasharray:none"
             id="path1827" />
           </g>
             <g
           id="g1829"
           transform="translate(215.3403,702.1617)"
           style="stroke-width:0.99975002;stroke-miterlimit:4;stroke-dasharray:none">
           <path
             d="m 0,0 h 2.359 c 0.104,-0.064 0.219,-0.11 0.35,-0.11 0.375,0 0.68,0.304 0.68,0.679 0,0.376 -0.305,0.681 -0.68,0.681 -0.131,0 -0.246,-0.047 -0.35,-0.111 H 0 v 1.717 h 2.155 c 0.104,-0.064 0.219,-0.11 0.35,-0.11 0.375,0 0.68,0.304 0.68,0.68 0,0.376 -0.305,0.68 -0.68,0.68 -0.131,0 -0.246,-0.047 -0.35,-0.111 h -5.59 c -0.104,0.064 -0.219,0.111 -0.35,0.111 -0.375,0 -0.679,-0.304 -0.679,-0.68 0,-0.376 0.304,-0.68 0.679,-0.68 0.131,0 0.246,0.046 0.35,0.11 h 2.296 V 1.139 h -2.36 c -0.103,0.064 -0.218,0.111 -0.349,0.111 -0.376,0 -0.68,-0.305 -0.68,-0.681 0,-0.375 0.304,-0.679 0.68,-0.679 0.131,0 0.246,0.046 0.349,0.11 h 2.36 v -7.952 c -0.064,-0.104 -0.111,-0.219 -0.111,-0.35 0,-0.376 0.305,-0.68 0.68,-0.68 0.376,0 0.68,0.304 0.68,0.68 0,0.131 -0.046,0.246 -0.11,0.35 z"
             style="fill:#ffffff;fill-opacity:1;fill-rule:nonzero;stroke:none;stroke-width:0.99975002;stroke-miterlimit:4;stroke-dasharray:none"
             id="path1831" />
           </g>
             <g
           id="g1833"
           transform="translate(244.7241,706.1569)"
           style="stroke-width:0.99975002;stroke-miterlimit:4;stroke-dasharray:none">
           <path
             d="m 0,0 h -6.545 v -12.867 h 2.493 c 0.104,-0.064 0.219,-0.11 0.35,-0.11 0.375,0 0.68,0.304 0.68,0.68 0,0.376 -0.305,0.68 -0.68,0.68 -0.131,0 -0.246,-0.047 -0.35,-0.111 h -1.354 v 10.589 h 4.267 v -10.808 c -0.064,-0.104 -0.111,-0.219 -0.111,-0.35 0,-0.376 0.305,-0.68 0.68,-0.68 0.376,0 0.68,0.304 0.68,0.68 0,0.13 -0.047,0.246 -0.11,0.349 z"
             style="fill:#ffffff;fill-opacity:1;fill-rule:nonzero;stroke:none;stroke-width:0.99975002;stroke-miterlimit:4;stroke-dasharray:none"
             id="path1835" />
           </g>
             <g
           id="g1837"
           transform="translate(213.0151,700.7125)"
           style="stroke-width:0.99975002;stroke-miterlimit:4;stroke-dasharray:none">
           <path
             d="m 0,0 c 0,0.375 -0.304,0.68 -0.68,0.68 -0.376,0 -0.68,-0.305 -0.68,-0.68 0,-0.131 0.047,-0.246 0.111,-0.35 v -6.153 c -0.064,-0.104 -0.111,-0.219 -0.111,-0.35 0,-0.376 0.304,-0.68 0.68,-0.68 0.376,0 0.68,0.304 0.68,0.68 0,0.131 -0.046,0.246 -0.11,0.35 V -0.35 C -0.046,-0.246 0,-0.131 0,0"
             style="fill:#ffffff;fill-opacity:1;fill-rule:nonzero;stroke:none;stroke-width:0.99975002;stroke-miterlimit:4;stroke-dasharray:none"
             id="path1839" />
           </g>
             <g
           id="g1841"
           transform="translate(219.5791,699.1637)"
           style="stroke-width:0.99975002;stroke-miterlimit:4;stroke-dasharray:none">
           <path
             d="m 0,0 c 0,-0.375 0.305,-0.68 0.68,-0.68 0.376,0 0.68,0.305 0.68,0.68 0,0.131 -0.047,0.246 -0.11,0.35 v 5.956 c 0.063,0.104 0.11,0.219 0.11,0.35 0,0.376 -0.304,0.68 -0.68,0.68 C 0.305,7.336 0,7.032 0,6.656 0,6.525 0.047,6.41 0.111,6.307 V 0.35 C 0.047,0.246 0,0.131 0,0"
             style="fill:#ffffff;fill-opacity:1;fill-rule:nonzero;stroke:none;stroke-width:0.99975002;stroke-miterlimit:4;stroke-dasharray:none"
             id="path1843" />
           </g>
             <g
           id="g1845"
           transform="translate(224.3608,699.1637)"
           style="stroke-width:0.99975002;stroke-miterlimit:4;stroke-dasharray:none">
           <path
             d="m 0,0 c 0,-0.375 0.304,-0.68 0.68,-0.68 0.376,0 0.68,0.305 0.68,0.68 0,0.131 -0.047,0.246 -0.11,0.35 V 6.307 C 1.313,6.41 1.36,6.525 1.36,6.656 1.36,7.032 1.056,7.336 0.68,7.336 0.304,7.336 0,7.032 0,6.656 0,6.525 0.047,6.41 0.111,6.307 V 0.35 C 0.047,0.246 0,0.131 0,0"
             style="fill:#ffffff;fill-opacity:1;fill-rule:nonzero;stroke:none;stroke-width:0.99975002;stroke-miterlimit:4;stroke-dasharray:none"
             id="path1847" />
           </g>
             <g
           id="g1849"
           transform="translate(218.1133,696.8795)"
           style="stroke-width:0.99975002;stroke-miterlimit:4;stroke-dasharray:none">
           <path
             d="m 0,0 c -0.018,0.103 -0.062,0.193 -0.118,0.273 l -0.573,3.345 c 0.027,0.094 0.038,0.194 0.02,0.297 C -0.734,4.285 -1.085,4.533 -1.456,4.47 -1.826,4.406 -2.075,4.055 -2.011,3.685 -1.985,3.53 -1.9,3.404 -1.792,3.306 L -1.26,0.201 C -1.329,0.072 -1.367,-0.075 -1.341,-0.229 -1.277,-0.6 -0.926,-0.848 -0.556,-0.785 -0.185,-0.722 0.063,-0.37 0,0"
             style="fill:#ffffff;fill-opacity:1;fill-rule:nonzero;stroke:none;stroke-width:0.99975002;stroke-miterlimit:4;stroke-dasharray:none"
             id="path1851" />
           </g>
             <g
           id="g1853"
           transform="translate(225.041,696.2623)"
           style="stroke-width:0.99975002;stroke-miterlimit:4;stroke-dasharray:none">
           <path
             d="m 0,0 c -0.342,0 -0.612,-0.256 -0.661,-0.584 l -1.037,-1.249 h -4.87 c -0.104,0.064 -0.219,0.11 -0.35,0.11 -0.375,0 -0.68,-0.304 -0.68,-0.68 0,-0.375 0.305,-0.68 0.68,-0.68 0.131,0 0.246,0.047 0.35,0.111 h 5.404 l 1.374,1.654 c 0.271,0.09 0.47,0.337 0.47,0.638 C 0.68,-0.305 0.375,0 0,0"
             style="fill:#ffffff;fill-opacity:1;fill-rule:nonzero;stroke:none;stroke-width:0.99975002;stroke-miterlimit:4;stroke-dasharray:none"
             id="path1855" />
           </g>
             <g
           id="g1857"
           transform="translate(221.9702,697.421)"
           style="stroke-width:0.99975002;stroke-miterlimit:4;stroke-dasharray:none">
           <path
             d="m 0,0 c 0,-0.375 0.304,-0.68 0.68,-0.68 0.376,0 0.68,0.305 0.68,0.68 0,0.131 -0.047,0.246 -0.11,0.35 v 7.699 c 0.063,0.104 0.11,0.219 0.11,0.35 0,0.375 -0.304,0.68 -0.68,0.68 C 0.304,9.079 0,8.774 0,8.399 0,8.268 0.047,8.153 0.111,8.049 V 0.35 C 0.047,0.246 0,0.131 0,0"
             style="fill:#ffffff;fill-opacity:1;fill-rule:nonzero;stroke:none;stroke-width:0.99975002;stroke-miterlimit:4;stroke-dasharray:none"
             id="path1859" />
           </g>
             <g
           id="g1861"
           transform="translate(231.8838,699.6066)"
           style="stroke-width:0.99975002;stroke-miterlimit:4;stroke-dasharray:none">
           <path
             d="M 0,0 V 3.69 H 3.299 V 0 c 0,-1.456 -0.64,-2.773 -1.65,-3.704 C 0.639,-2.773 0,-1.456 0,0 m 4.973,-4.98 c -0.102,0 -0.197,-0.027 -0.284,-0.067 L 4.4,-5.01 C 3.738,-4.923 3.124,-4.704 2.571,-4.39 3.717,-3.259 4.437,-1.708 4.437,0 V 3.602 C 4.475,3.595 4.509,3.58 4.548,3.58 c 0.375,0 0.68,0.304 0.68,0.679 0,0.376 -0.305,0.68 -0.68,0.68 -0.039,0 -0.073,-0.015 -0.111,-0.022 v 0.947 c 0.064,0.103 0.111,0.219 0.111,0.349 0,0.376 -0.304,0.68 -0.68,0.68 -0.376,0 -0.68,-0.304 -0.68,-0.68 0,-0.13 0.047,-0.246 0.111,-0.349 V 4.829 H 0 v 1.035 c 0.064,0.103 0.11,0.219 0.11,0.349 0,0.376 -0.304,0.68 -0.679,0.68 -0.376,0 -0.681,-0.304 -0.681,-0.68 0,-0.13 0.047,-0.246 0.111,-0.349 V 4.907 c -0.052,0.013 -0.103,0.032 -0.16,0.032 -0.376,0 -0.68,-0.304 -0.68,-0.68 0,-0.375 0.304,-0.679 0.68,-0.679 0.057,0 0.108,0.019 0.16,0.032 V 0 c 0,-1.708 0.72,-3.259 1.866,-4.39 C 0.174,-4.704 -0.44,-4.923 -1.102,-5.01 L -1.39,-5.047 c -0.088,0.04 -0.182,0.067 -0.284,0.067 -0.376,0 -0.68,-0.305 -0.68,-0.681 0,-0.375 0.304,-0.68 0.68,-0.68 0.165,0 0.311,0.067 0.429,0.165 l 0.29,0.037 c 0.963,0.126 1.837,0.491 2.604,1.001 0.767,-0.51 1.641,-0.875 2.604,-1.001 l 0.29,-0.037 c 0.119,-0.098 0.265,-0.165 0.43,-0.165 0.376,0 0.68,0.305 0.68,0.68 0,0.376 -0.304,0.681 -0.68,0.681"
             style="fill:#ffffff;fill-opacity:1;fill-rule:nonzero;stroke:none;stroke-width:0.99975002;stroke-miterlimit:4;stroke-dasharray:none"
             id="path1863" />
           </g>
             <g
           id="g1865"
           transform="translate(219.1416,715.3727)"
           style="stroke-width:0.99975002;stroke-miterlimit:4;stroke-dasharray:none">
           <path
             d="m 0,0 c -3.122,0 -5.662,2.54 -5.662,5.661 0,3.122 2.54,5.661 5.662,5.661 3.122,0 5.661,-2.539 5.661,-5.661 C 5.661,2.54 3.122,0 0,0 m 0,13.448 c -4.294,0 -7.788,-3.493 -7.788,-7.787 0,-4.294 3.494,-7.787 7.788,-7.787 4.294,0 7.787,3.493 7.787,7.787 0,4.294 -3.493,7.787 -7.787,7.787"
             style="fill:#ffffff;fill-opacity:1;fill-rule:nonzero;stroke:none;stroke-width:0.99975002;stroke-miterlimit:4;stroke-dasharray:none"
             id="path1867" />
           </g>
             <g
           id="g1869"
           transform="translate(195.0708,715.672)"
           style="stroke-width:0.99975002;stroke-miterlimit:4;stroke-dasharray:none">
           <path
             d="m 0,0 v 7.929 c 0,3.811 -3.344,6.855 -7.251,6.353 -3.23,-0.414 -5.564,-3.32 -5.564,-6.576 V 0 c 0,-0.215 -0.034,-0.437 -0.146,-0.621 -0.129,-0.212 -0.205,-0.458 -0.205,-0.724 0,-0.78 0.633,-1.413 1.414,-1.413 0.78,0 1.413,0.633 1.413,1.413 0,0.266 -0.076,0.512 -0.205,0.724 -0.112,0.184 -0.145,0.406 -0.145,0.621 v 7.738 c 0,2.235 1.629,4.235 3.853,4.452 2.552,0.249 4.71,-1.759 4.71,-4.261 V 0 c 0,-0.215 -0.034,-0.437 -0.146,-0.621 -0.129,-0.212 -0.205,-0.458 -0.205,-0.724 0,-0.78 0.633,-1.413 1.414,-1.413 0.78,0 1.413,0.633 1.413,1.413 0,0.266 -0.076,0.512 -0.204,0.724 C 0.033,-0.437 0,-0.215 0,0"
             style="fill:#ffffff;fill-opacity:1;fill-rule:nonzero;stroke:none;stroke-width:0.99975002;stroke-miterlimit:4;stroke-dasharray:none"
             id="path1871" />
           </g>
             <g
           id="g1873"
           transform="translate(266.0962,715.672)"
           style="stroke-width:0.99975002;stroke-miterlimit:4;stroke-dasharray:none">
           <path
             d="m 0,0 v 7.929 c 0,3.811 -3.344,6.855 -7.251,6.353 -3.23,-0.414 -5.564,-3.32 -5.564,-6.576 V 0 c 0,-0.215 -0.034,-0.437 -0.146,-0.621 -0.129,-0.212 -0.205,-0.458 -0.205,-0.724 0,-0.78 0.633,-1.413 1.413,-1.413 0.781,0 1.414,0.633 1.414,1.413 0,0.266 -0.076,0.512 -0.205,0.724 -0.112,0.184 -0.145,0.406 -0.145,0.621 v 7.738 c 0,2.235 1.629,4.235 3.853,4.452 2.552,0.249 4.71,-1.759 4.71,-4.261 V 0 c 0,-0.215 -0.034,-0.437 -0.146,-0.621 -0.129,-0.212 -0.205,-0.458 -0.205,-0.724 0,-0.78 0.633,-1.413 1.414,-1.413 0.78,0 1.413,0.633 1.413,1.413 0,0.266 -0.076,0.512 -0.204,0.724 C 0.033,-0.437 0,-0.215 0,0"
             style="fill:#ffffff;fill-opacity:1;fill-rule:nonzero;stroke:none;stroke-width:0.99975002;stroke-miterlimit:4;stroke-dasharray:none"
             id="path1875" />
           </g>
             <g
           id="g1877"
           transform="translate(205.9058,730.006)"
           style="stroke-width:0.99975002;stroke-miterlimit:4;stroke-dasharray:none">
           <path
             d="m 0,0 c -0.781,0 -1.414,-0.633 -1.414,-1.413 0,-0.266 0.076,-0.512 0.205,-0.724 0.112,-0.184 0.146,-0.405 0.146,-0.621 v -8.95 c 0,-1.613 -1.308,-2.921 -2.921,-2.921 h -1.503 c -0.216,0 -0.438,0.033 -0.622,0.146 -0.211,0.129 -0.457,0.204 -0.724,0.204 -0.78,0 -1.413,-0.633 -1.413,-1.413 0,-0.781 0.633,-1.413 1.413,-1.413 0.267,0 0.513,0.075 0.724,0.204 0.184,0.112 0.406,0.146 0.622,0.146 h 1.503 c 2.787,0 5.047,2.259 5.047,5.047 v 8.95 c 0,0.216 0.033,0.437 0.145,0.621 0.129,0.212 0.205,0.458 0.205,0.724 C 1.413,-0.633 0.78,0 0,0"
             style="fill:#ffffff;fill-opacity:1;fill-rule:nonzero;stroke:none;stroke-width:0.99975002;stroke-miterlimit:4;stroke-dasharray:none"
             id="path1879" />
           </g>
             <g
           id="g1881"
           transform="translate(248.6914,727.8693)"
           style="stroke-width:0.99975002;stroke-miterlimit:4;stroke-dasharray:none">
           <path
             d="m 0,0 c 0.129,0.211 0.205,0.458 0.205,0.724 0,0.78 -0.633,1.413 -1.414,1.413 -0.78,0 -1.413,-0.633 -1.413,-1.413 0,-0.266 0.076,-0.513 0.205,-0.724 0.112,-0.184 0.146,-0.406 0.146,-0.621 v -11.576 c 0,-0.216 -0.034,-0.437 -0.146,-0.621 -0.129,-0.212 -0.205,-0.458 -0.205,-0.724 0,-0.781 0.633,-1.414 1.413,-1.414 0.781,0 1.414,0.633 1.414,1.414 0,0.266 -0.076,0.512 -0.205,0.724 -0.112,0.184 -0.146,0.405 -0.146,0.621 v 11.576 c 0,0.215 0.034,0.437 0.146,0.621"
             style="fill:#ffffff;fill-opacity:1;fill-rule:nonzero;stroke:none;stroke-width:0.99975002;stroke-miterlimit:4;stroke-dasharray:none"
             id="path1883" />
           </g>
             <g
           id="g1885"
           transform="translate(178.9258,715.7272)"
           style="stroke-width:0.99975002;stroke-miterlimit:4;stroke-dasharray:none">
           <path
             d="m 0,0 c -0.266,0 -0.512,-0.076 -0.723,-0.205 -0.184,-0.112 -0.406,-0.146 -0.621,-0.146 h -2.619 c -1.613,0 -2.921,1.309 -2.921,2.921 v 8.951 c 0,0.215 0.033,0.437 0.146,0.621 0.129,0.212 0.204,0.458 0.204,0.724 0,0.78 -0.633,1.413 -1.413,1.413 -0.781,0 -1.413,-0.633 -1.413,-1.413 0,-0.266 0.075,-0.512 0.204,-0.724 0.113,-0.184 0.146,-0.406 0.146,-0.621 V 2.57 c 0,-2.787 2.26,-5.047 5.047,-5.047 h 2.619 c 0.215,0 0.437,-0.033 0.621,-0.145 0.211,-0.129 0.457,-0.205 0.723,-0.205 0.781,0 1.414,0.633 1.414,1.413 C 1.414,-0.633 0.781,0 0,0"
             style="fill:#ffffff;fill-opacity:1;fill-rule:nonzero;stroke:none;stroke-width:0.99975002;stroke-miterlimit:4;stroke-dasharray:none"
             id="path1887" />
           </g>
             <g
           id="g1889"
           transform="translate(240.8896,729.9406)"
           style="stroke-width:0.99975002;stroke-miterlimit:4;stroke-dasharray:none">
           <path
             d="M 0,0 C -0.779,0 -1.411,-0.631 -1.413,-1.41 H -1.414 C -1.409,-1.625 -1.492,-1.834 -1.6,-2.02 l 0.001,-10e-4 -3.763,-6.315 -1.211,2.032 v 0 l -2.553,4.283 10e-4,10e-4 c -0.108,0.186 -0.19,0.395 -0.186,0.61 H -9.312 C -9.313,-0.631 -9.945,0 -10.725,0 c -0.78,0 -1.413,-0.633 -1.413,-1.414 0,-0.533 0.298,-0.998 0.752,-1.241 0.163,-0.087 0.275,-0.2 0.368,-0.343 l 0.348,-0.584 4.245,-7.123 v -3.556 c 0,-0.216 -0.034,-0.437 -0.146,-0.621 -0.129,-0.212 -0.205,-0.458 -0.205,-0.724 0,-0.781 0.633,-1.414 1.413,-1.414 0.781,0 1.414,0.633 1.414,1.414 0,0.266 -0.076,0.512 -0.205,0.724 -0.112,0.184 -0.145,0.405 -0.145,0.621 v 3.556 l 4.592,7.707 c 0.093,0.143 0.206,0.256 0.369,0.343 0.454,0.243 0.752,0.708 0.752,1.241 C 1.414,-0.633 0.781,0 0,0"
             style="fill:#ffffff;fill-opacity:1;fill-rule:nonzero;stroke:none;stroke-width:0.99975002;stroke-miterlimit:4;stroke-dasharray:none"
             id="path1891" />
           </g>
             <g
           id="g1893"
           transform="translate(284.2861,721.483)"
           style="stroke-width:0.99975002;stroke-miterlimit:4;stroke-dasharray:none">
           <path
             d="m 0,0 h -5.657 c -0.216,0 -0.437,0.034 -0.621,0.146 -0.211,0.129 -0.458,0.205 -0.723,0.205 -0.781,0 -1.414,-0.633 -1.414,-1.413 0,-0.781 0.633,-1.414 1.414,-1.414 0.265,0 0.512,0.076 0.723,0.205 0.184,0.112 0.405,0.145 0.621,0.145 h 4.073 c -0.81,-2.637 -3.46,-4.394 -6.43,-3.882 -2.187,0.377 -3.992,2.093 -4.481,4.258 -0.831,3.683 1.962,6.962 5.508,6.962 1.145,0 2.237,-0.357 3.169,-0.991 0.026,-0.019 0.045,-0.048 0.052,-0.079 0.143,-0.63 0.704,-1.1 1.376,-1.1 0.781,0 1.414,0.632 1.414,1.413 0,0.78 -0.633,1.413 -1.414,1.413 -0.002,0 -0.004,0 -0.006,0 -0.033,-0.004 -0.065,0.007 -0.092,0.027 L -2.489,5.894 c -1.825,1.298 -4.139,1.781 -6.448,1.201 -2.928,-0.738 -5.211,-3.204 -5.716,-6.182 -0.88,-5.187 3.412,-9.658 8.552,-9.086 3.723,0.413 6.546,3.576 6.889,7.306 v 0.004 C 0.83,-0.399 0.465,0 0,0"
             style="fill:#ffffff;fill-opacity:1;fill-rule:nonzero;stroke:none;stroke-width:0.99975002;stroke-miterlimit:4;stroke-dasharray:none"
             id="path1895" />
           </g>

           </g>
           </g>
           </g>
           </svg>
